<?xml version="1.0" encoding="utf-8"?>
<!-- Generator: Adobe Illustrator 24.0.1, SVG Export Plug-In . SVG Version: 6.00 Build 0)  -->
<svg version="1.2" baseProfile="tiny" id="icon" xmlns="http://www.w3.org/2000/svg" xmlns:xlink="http://www.w3.org/1999/xlink"
	 x="0px" y="0px" viewBox="0 0 20 16" xml:space="preserve">
<g>
	<path d="M15.625,9.219l-5-4c-0.365-0.292-0.884-0.292-1.249,0l-5,4C4.138,9.409,4,9.696,4,10v4c0,0.553,0.448,1,1,1h1h1h0.5
		c0.552,0,1-0.448,1-1v-2c0-0.552,0.448-1,1-1h1c0.552,0,1,0.448,1,1v2c0,0.552,0.448,1,1,1H13h1h1c0.553,0,1-0.447,1-1v-4
		C16,9.696,15.862,9.409,15.625,9.219z"/>
	<path d="M18.613,7.433L16,5.404V1.5C16,1.224,15.776,1,15.5,1H14c-0.276,0-0.5,0.224-0.5,0.5v1.963l-2.949-2.29
		c-0.065-0.044-0.125-0.07-0.189-0.097c-0.057-0.022-0.114-0.042-0.177-0.054L10,1.008c-0.063,0-0.122,0.003-0.186,0.015
		L9.628,1.081c-0.063,0.025-0.121,0.054-0.1,0.05L1.386,7.433c-0.21,0.164-0.345,0.4-0.378,0.665
		C0.975,8.363,1.047,8.625,1.211,8.837c0.327,0.42,0.985,0.5,1.403,0.175L10,3.267l7.385,5.743C17.559,9.146,17.777,9.222,18,9.222
		c0.311,0,0.598-0.14,0.789-0.385c0.164-0.211,0.236-0.474,0.203-0.739C18.959,7.833,18.824,7.597,18.613,7.433z"/>
</g>
</svg>
