<?xml version="1.0" encoding="utf-8"?>
<!-- Generator: Adobe Illustrator 24.0.1, SVG Export Plug-In . SVG Version: 6.00 Build 0)  -->
<svg version="1.2" baseProfile="tiny" id="icon" xmlns="http://www.w3.org/2000/svg" xmlns:xlink="http://www.w3.org/1999/xlink"
	 x="0px" y="0px" viewBox="0 0 20 16" xml:space="preserve">
<g>
	<path d="M8.75,9.87v1.39v1.042V13v0.61c0.403,0.089,0.82,0.14,1.25,0.14V13v-0.5v-1v-1.25v-4.5c1.243,0,2.25,1.007,2.25,2.25h1.25
		c0-1.933-1.567-3.5-3.5-3.5S6.5,6.067,6.5,8c0,1.071,0.492,2.018,1.25,2.66V8c0-0.78,0.397-1.466,1-1.87V9.87z"/>
	<path d="M11,11.337C12.124,11,13.007,10.12,13.345,9H12V8.98C11.996,8.988,11.99,8.993,11.986,9H11v1h0.008
		c-0.003,0.001-0.005,0.004-0.008,0.006V11.337z"/>
	<path d="M5.5,8c0-1.661,0.911-3.096,2.25-3.876V2.708C5.693,3.583,4.25,5.623,4.25,8c0,1.855,0.886,3.497,2.25,4.548v1.196
		C4.558,12.56,3.25,10.441,3.25,8c0-2.938,1.88-5.43,4.5-6.358V0.327C4.428,1.299,2,4.364,2,8s2.428,6.701,5.75,7.673V15v-0.642
		v-1.065V12v-0.124C6.411,11.096,5.5,9.661,5.5,8z"/>
	<path d="M14.5,8H15h0.75h1H17h1c0-4.418-3.582-8-8-8C9.574,0,9.158,0.043,8.75,0.107V1.37C9.156,1.294,9.572,1.25,10,1.25
		c3.3,0,6.043,2.37,6.63,5.5h-1.02c-0.571-2.574-2.864-4.5-5.61-4.5c-0.43,0-0.847,0.051-1.25,0.14v1.308
		C9.149,3.582,9.563,3.5,10,3.5C12.485,3.5,14.5,5.515,14.5,8z"/>
	<path d="M16.668,9H15.66H15h-0.626c-0.384,1.677-1.695,2.997-3.374,3.38v1.278c2.026-0.356,3.677-1.775,4.379-3.657h1.055
		c-0.853,2.749-3.404,4.75-6.434,4.75c-0.428,0-0.844-0.044-1.25-0.12v1.263C9.158,15.957,9.574,16,10,16
		c4.079,0,7.438-3.055,7.931-7H17H16.668z"/>
</g>
</svg>
