<?xml version="1.0" encoding="utf-8"?>
<!-- Generator: Adobe Illustrator 24.0.1, SVG Export Plug-In . SVG Version: 6.00 Build 0)  -->
<svg version="1.2" baseProfile="tiny" id="icon" xmlns="http://www.w3.org/2000/svg" xmlns:xlink="http://www.w3.org/1999/xlink"
	 x="0px" y="0px" viewBox="0 0 20 16" xml:space="preserve">
<path d="M17.707,14.293l-3.963-3.963C14.53,9.255,15,7.934,15,6.5C15,2.91,12.09,0,8.5,0S2,2.91,2,6.5S4.91,13,8.5,13
	c1.434,0,2.755-0.47,3.83-1.256l3.963,3.963C16.488,15.902,16.744,16,17,16s0.512-0.098,0.707-0.293
	C18.098,15.316,18.098,14.684,17.707,14.293z M8.5,10.5c-2.206,0-4-1.794-4-4c0-2.206,1.794-4,4-4s4,1.794,4,4
	C12.5,8.706,10.706,10.5,8.5,10.5z"/>
</svg>
