<?xml version="1.0" encoding="utf-8"?>
<!-- Generator: Adobe Illustrator 24.0.1, SVG Export Plug-In . SVG Version: 6.00 Build 0)  -->
<svg version="1.2" baseProfile="tiny" id="icon" xmlns="http://www.w3.org/2000/svg" xmlns:xlink="http://www.w3.org/1999/xlink"
	 x="0px" y="0px" viewBox="0 0 20 16" xml:space="preserve">
<path d="M17.707,7.293l-7-7C10.52,0.105,10.265,0,10,0H3C2.448,0,2,0.448,2,1v7c0,0.265,0.105,0.52,0.293,0.707l7,7
	C9.488,15.902,9.744,16,10,16s0.512-0.098,0.707-0.293l7-7C18.098,8.316,18.098,7.684,17.707,7.293z M6,6C4.895,6,4,5.105,4,4
	c0-1.105,0.895-2,2-2s2,0.895,2,2C8,5.105,7.105,6,6,6z"/>
</svg>
