<?xml version="1.0" encoding="utf-8"?>
<!-- Generator: Adobe Illustrator 24.0.1, SVG Export Plug-In . SVG Version: 6.00 Build 0)  -->
<svg version="1.2" baseProfile="tiny" id="icon" xmlns="http://www.w3.org/2000/svg" xmlns:xlink="http://www.w3.org/1999/xlink"
	 x="0px" y="0px" viewBox="0 0 20 16" xml:space="preserve">
<g>
	<path d="M19.707,7.293l-7-7C12.52,0.105,12.265,0,12,0h-2c0.265,0,0.52,0.105,0.707,0.293l7,7c0.391,0.391,0.391,1.023,0,1.414
		L11,15.414l0.293,0.293C11.488,15.902,11.744,16,12,16s0.512-0.098,0.707-0.293l7-7C20.098,8.316,20.098,7.684,19.707,7.293z"/>
	<path d="M15.707,7.293l-7-7C8.52,0.105,8.265,0,8,0H1C0.448,0,0,0.448,0,1v7c0,0.265,0.105,0.52,0.293,0.707l7,7
		C7.488,15.902,7.744,16,8,16s0.512-0.098,0.707-0.293l7-7C16.098,8.316,16.098,7.684,15.707,7.293z M4,6C2.895,6,2,5.105,2,4
		c0-1.105,0.895-2,2-2s2,0.895,2,2C6,5.105,5.105,6,4,6z"/>
</g>
</svg>
