<?xml version="1.0" encoding="utf-8"?>
<!-- Generator: Adobe Illustrator 24.0.1, SVG Export Plug-In . SVG Version: 6.00 Build 0)  -->
<svg version="1.2" baseProfile="tiny" id="icon" xmlns="http://www.w3.org/2000/svg" xmlns:xlink="http://www.w3.org/1999/xlink"
	 x="0px" y="0px" viewBox="0 0 20 16" xml:space="preserve">
<g>
	<path d="M17,1H3C2.448,1,2,1.448,2,2v1c0,0.552,0.448,1,1,1h14c0.552,0,1-0.448,1-1V2C18,1.448,17.552,1,17,1z"/>
	<path d="M16,5H4C3.448,5,3,5.448,3,6v8c0,0.552,0.448,1,1,1h12c0.552,0,1-0.448,1-1V6C17,5.448,16.552,5,16,5z M12.5,8.5h-5
		C7.224,8.5,7,8.276,7,8c0-0.276,0.224-0.5,0.5-0.5h5C12.776,7.5,13,7.724,13,8C13,8.276,12.776,8.5,12.5,8.5z"/>
</g>
</svg>
