<?xml version="1.0" encoding="utf-8"?>
<!-- Generator: Adobe Illustrator 24.0.1, SVG Export Plug-In . SVG Version: 6.00 Build 0)  -->
<svg version="1.2" baseProfile="tiny" id="icon" xmlns="http://www.w3.org/2000/svg" xmlns:xlink="http://www.w3.org/1999/xlink"
	 x="0px" y="0px" viewBox="0 0 20 16" xml:space="preserve">
<path d="M16.5,12h-13C3.224,12,3,12.224,3,12.5v1C3,13.776,3.224,14,3.5,14h13c0.276,0,0.5-0.224,0.5-0.5v-1
	C17,12.224,16.776,12,16.5,12z"/>
<path d="M16.5,7h-13C3.224,7,3,7.224,3,7.5v1C3,8.776,3.224,9,3.5,9h13C16.776,9,17,8.776,17,8.5v-1C17,7.224,16.776,7,16.5,7z"/>
<path d="M16.5,2h-13C3.224,2,3,2.224,3,2.5v1C3,3.776,3.224,4,3.5,4h13C16.776,4,17,3.776,17,3.5v-1C17,2.224,16.776,2,16.5,2z"/>
</svg>
