<?xml version="1.0" encoding="utf-8"?>
<!-- Generator: Adobe Illustrator 24.0.1, SVG Export Plug-In . SVG Version: 6.00 Build 0)  -->
<svg version="1.2" baseProfile="tiny" id="icon" xmlns="http://www.w3.org/2000/svg" xmlns:xlink="http://www.w3.org/1999/xlink"
	 x="0px" y="0px" viewBox="0 0 20 16" xml:space="preserve">
<g>
	<path d="M17.226,6.174c-0.133,0-0.265,0.034-0.384,0.103L10,10.229L3.158,6.277C3.039,6.208,2.907,6.174,2.774,6.174
		c-0.134,0-0.268,0.035-0.389,0.106C2.147,6.42,2,6.678,2,6.957v6.261C2,13.65,2.347,14,2.774,14h14.452
		C17.653,14,18,13.65,18,13.217v-6.26c0-0.279-0.147-0.537-0.386-0.677C17.494,6.209,17.36,6.174,17.226,6.174z"/>
	<path d="M17.226,2H2.774C2.347,2,2,2.35,2,2.783v1.043c0,0.281,0.149,0.54,0.39,0.679l7.226,4.174
		C9.735,8.748,9.867,8.783,10,8.783s0.265-0.034,0.384-0.103l7.226-4.174C17.851,4.366,18,4.107,18,3.826V2.783
		C18,2.35,17.653,2,17.226,2z"/>
</g>
</svg>
