<?xml version="1.0" encoding="utf-8"?>
<!-- Generator: Adobe Illustrator 24.0.1, SVG Export Plug-In . SVG Version: 6.00 Build 0)  -->
<svg version="1.2" baseProfile="tiny" id="icon" xmlns="http://www.w3.org/2000/svg" xmlns:xlink="http://www.w3.org/1999/xlink"
	 x="0px" y="0px" viewBox="0 0 20 16" xml:space="preserve">
<g>
	<path d="M18.877,7.507C18.71,7.194,18.396,7,18.056,7H5.778c-0.332,0-0.639,0.184-0.81,0.485l-2.833,5
		c-0.175,0.309-0.18,0.694-0.012,1.007C2.29,13.806,2.604,14,2.944,14h12.278c0.332,0,0.639-0.184,0.81-0.486l2.833-5
		C19.04,8.206,19.045,7.821,18.877,7.507z"/>
	<path d="M5.778,6H16V5c0,0,0-1-1-1S9,4,9,4L7,2H2c0,0-1,0-1,1v10c0.004,0,0.007,0,0.011,0c-0.002-0.349,0.079-0.698,0.254-1.008
		l2.833-5C4.445,6.38,5.089,6,5.778,6z"/>
</g>
</svg>
