<?xml version="1.0" encoding="utf-8"?>
<!-- Generator: Adobe Illustrator 24.0.1, SVG Export Plug-In . SVG Version: 6.00 Build 0)  -->
<svg version="1.2" baseProfile="tiny" id="icon" xmlns="http://www.w3.org/2000/svg" xmlns:xlink="http://www.w3.org/1999/xlink"
	 x="0px" y="0px" viewBox="0 0 20 16" xml:space="preserve">
<g>
	<path d="M14,10c0,0-0.263,0-0.69,0c-0.95,0.631-2.087,1-3.31,1s-2.36-0.369-3.31-1C6.452,10,6.22,10,6,10c-3,0-3,3-3,3v2
		c0,0,0,1,1,1h0.279h11.442H16c1,0,1-1,1-1c0-0.442,0-1.079,0-2C17,10,14,10,14,10z"/>
	<circle cx="10" cy="5" r="5"/>
</g>
</svg>
